<svg width="24" height="17" viewBox="0 0 24 17" fill="none" xmlns="http://www.w3.org/2000/svg">
<path d="M23.4984 2.72102C23.2224 1.68836 22.4093 0.875219 21.3766 0.599266C19.5048 0.0976561 11.9999 0.0976563 11.9999 0.0976563C11.9999 0.0976563 4.49498 0.0976561 2.62313 0.599266C1.5907 0.875219 0.777375 1.68836 0.501375 2.72102C0 4.59264 0 8.4977 0 8.4977C0 8.4977 0 12.4028 0.501375 14.2742C0.777375 15.3069 1.5907 16.1202 2.62313 16.3961C4.49498 16.8976 11.9999 16.8976 11.9999 16.8976C11.9999 16.8976 19.5048 16.8976 21.3766 16.3961C22.4093 16.1202 23.2224 15.3069 23.4984 14.2742C24 12.4028 24 8.4977 24 8.4977C24 8.4977 24 4.59264 23.4984 2.72102Z" fill="#120D26"/>
<path d="M9.60059 12.1022L15.8358 8.50215L9.60059 4.9021V12.1022Z" fill="white"/>
</svg>
