<svg width="24" height="21" viewBox="0 0 24 21" fill="none" xmlns="http://www.w3.org/2000/svg">
<path d="M7.54753 20.2512C16.6042 20.2512 21.5578 12.7479 21.5578 6.24098C21.5578 6.02789 21.5578 5.81573 21.5434 5.60452C22.507 4.90744 23.3389 4.04442 24 3.05573C23.1014 3.45394 22.148 3.71503 21.1718 3.83044C22.1995 3.21525 22.9692 2.24691 23.3366 1.10691C22.3701 1.68042 21.3126 2.08467 20.2099 2.30213C19.2789 1.31208 17.9786 0.75 16.6196 0.75C13.9158 0.75 11.691 2.97487 11.691 5.67863C11.691 6.05372 11.7338 6.42764 11.8185 6.79299C7.86145 6.59466 4.16948 4.72294 1.67039 1.64836C0.370828 3.88552 1.04325 6.78474 3.19486 8.22145C2.41134 8.19825 1.64466 7.98684 0.96 7.60514V7.66753C0.960656 10.0026 2.62158 12.0321 4.91039 12.4944C4.18552 12.6921 3.42478 12.721 2.68706 12.5789C3.33052 14.5798 5.18602 15.959 7.28738 15.9984C5.54409 17.3685 3.38939 18.1126 1.17216 18.1104C0.780375 18.1097 0.388969 18.086 0 18.0394C2.25159 19.4843 4.87219 20.2509 7.54753 20.2474" fill="#120D26"/>
</svg>
