<svg width="24" height="17" viewBox="0 0 24 17" fill="none" xmlns="http://www.w3.org/2000/svg">
<path d="M23.4984 2.72114C23.2224 1.68848 22.4093 0.875341 21.3766 0.599388C19.5048 0.0977781 11.9999 0.0977783 11.9999 0.0977783C11.9999 0.0977783 4.49498 0.0977781 2.62313 0.599388C1.5907 0.875341 0.777375 1.68848 0.501375 2.72114C0 4.59276 0 8.49783 0 8.49783C0 8.49783 0 12.4029 0.501375 14.2743C0.777375 15.307 1.5907 16.1203 2.62313 16.3963C4.49498 16.8977 11.9999 16.8977 11.9999 16.8977C11.9999 16.8977 19.5048 16.8977 21.3766 16.3963C22.4093 16.1203 23.2224 15.307 23.4984 14.2743C24 12.4029 24 8.49783 24 8.49783C24 8.49783 24 4.59276 23.4984 2.72114Z" fill="#120D26"/>
<path d="M9.60059 12.1023L15.8358 8.50227L9.60059 4.90222V12.1023Z" fill="white"/>
</svg>
